<svg width="10" height="10" viewBox="0 0 10 10" fill="none" xmlns="http://www.w3.org/2000/svg">
<path d="M8.84651 3.64961C8.84651 4.02045 8.80551 4.3517 8.72351 4.64336C8.64247 4.93503 8.52995 5.19337 8.38883 5.41837C8.25058 5.6392 8.09039 5.82878 7.90828 5.98712C7.72616 6.14545 7.53355 6.27669 7.33237 6.38087C7.13499 6.48087 6.93477 6.55378 6.72976 6.59962C6.52858 6.64545 6.33884 6.66836 6.15958 6.66836L9.19358 9.59962H6.94716L3.91888 6.66836H2.87481V5.04336H6.15958C6.3417 5.0267 6.5076 4.98504 6.6573 4.91837C6.80985 4.84753 6.93953 4.75378 7.04823 4.63711C7.15979 4.52045 7.2456 4.38086 7.30472 4.21837C7.36479 4.0517 7.39435 3.86211 7.39435 3.64961V2.62462C7.39435 2.53295 7.38291 2.4642 7.36098 2.41837C7.34191 2.36836 7.31616 2.33295 7.28279 2.31212C7.25323 2.28712 7.2189 2.27253 7.18172 2.26836C7.14835 2.2642 7.11688 2.26211 7.08732 2.26211H2.29318V9.59962H0.841019V1.45586C0.841019 1.34336 0.859134 1.23711 0.89632 1.13711C0.934459 1.03712 0.984045 0.949615 1.04793 0.874615C1.11467 0.799615 1.19286 0.741282 1.28249 0.699615C1.37212 0.657949 1.46842 0.637115 1.57235 0.637115H7.08732C7.41151 0.637115 7.68516 0.703782 7.90828 0.837115C8.13139 0.966281 8.31256 1.13087 8.44986 1.33087C8.59193 1.5267 8.69205 1.7392 8.75212 1.96836C8.81505 2.19754 8.84651 2.41212 8.84651 2.61212V3.64961Z" fill="white"/>
</svg>
