<svg width="32" height="32" viewBox="0 0 32 32" fill="none" xmlns="http://www.w3.org/2000/svg">
<path d="M32.0089 30.9329H27.1297V13.1413L18.5446 30.0371C18.3336 30.4676 18.0356 30.794 17.6507 31.0163C17.2783 31.2385 16.8747 31.3497 16.4402 31.3497C16.0181 31.3497 15.6208 31.2385 15.2484 31.0163C14.8883 30.794 14.6028 30.4676 14.3918 30.0371L5.76935 13.1413V30.9329H0.927414V3.37044C0.927414 2.74545 1.08881 2.18989 1.41161 1.70377C1.74682 1.21767 2.18135 0.891279 2.71521 0.724613C2.97592 0.655168 3.23664 0.634334 3.49736 0.662112C3.75809 0.676001 4.00638 0.738502 4.24228 0.849612C4.49059 0.946835 4.71405 1.09267 4.91269 1.28711C5.11134 1.46767 5.27895 1.68989 5.41552 1.95378L16.4402 23.3913L27.4649 1.95378C27.7505 1.426 28.1415 1.051 28.6382 0.828779C29.1472 0.606557 29.6748 0.571835 30.2211 0.724613C30.7426 0.891279 31.1709 1.21767 31.5061 1.70377C31.8413 2.18989 32.0089 2.74545 32.0089 3.37044V30.9329Z" fill="white"/>
</svg>
