<svg width="23" height="23" viewBox="0 0 23 23" fill="none" xmlns="http://www.w3.org/2000/svg">
<path d="M22.9987 15.4747C22.9987 16.2246 22.8814 17.0371 22.6449 17.9121C22.4094 18.7732 22.0242 19.5788 21.4903 20.3287C20.9697 21.0649 20.2803 21.683 19.4231 22.1829C18.5793 22.683 17.5485 22.9329 16.3319 22.9329H7.59803C6.92763 22.9329 6.20126 22.801 5.41912 22.5371C4.64936 22.2732 3.92929 21.8496 3.25889 21.2662C2.60089 20.669 2.04844 19.8982 1.60145 18.9538C1.15455 17.9954 0.931046 16.8357 0.931046 15.4747C0.931046 14.7246 1.04899 13.9121 1.28489 13.0371C1.52078 12.1621 1.89941 11.3566 2.42087 10.6205C2.95473 9.8704 3.64381 9.24544 4.48803 8.74549C5.34465 8.24544 6.38138 7.99541 7.59803 7.99541H16.3319V13.1621H7.59803C6.94003 13.1621 6.43096 13.3913 6.07092 13.8496C5.71089 14.2941 5.53087 14.8496 5.53087 15.5163C5.53087 16.2246 5.73577 16.7802 6.14549 17.1829C6.5676 17.5718 7.06417 17.7663 7.63531 17.7663H16.3319C16.9898 17.7663 17.499 17.5441 17.8594 17.0996C18.2188 16.6551 18.399 16.0996 18.399 15.433V7.8704C18.399 7.16213 18.2007 6.59957 17.8031 6.18293C17.4189 5.76629 16.9278 5.55797 16.3319 5.55797H5.69849V0.412117H16.3319C17.0022 0.412117 17.723 0.544053 18.4925 0.807946C19.2743 1.07184 19.9942 1.50239 20.6521 2.09962C21.3234 2.68299 21.8821 3.45376 22.3284 4.41216C22.7756 5.35659 22.9987 6.50933 22.9987 7.8704V15.4747Z" fill="white"/>
</svg>
