<svg width="23" height="23" viewBox="0 0 23 23" fill="none" xmlns="http://www.w3.org/2000/svg">
<path d="M22.6209 7.8704C22.6209 8.62048 22.503 9.43296 22.2671 10.3079C22.0312 11.1691 21.6463 11.9746 21.1124 12.7246C20.5911 13.4607 19.902 14.0788 19.0454 14.5788C18.2011 15.0788 17.1706 15.3287 15.954 15.3287H7.21981V10.1829H15.954C16.612 10.1829 17.1209 9.96074 17.481 9.51626C17.841 9.05792 18.021 8.49547 18.021 7.8288C18.021 7.12043 17.8162 6.56491 17.4065 6.16213C17.0093 5.75936 16.525 5.55797 15.954 5.55797H7.21981C6.5618 5.55797 6.05283 5.78709 5.6928 6.24544C5.33276 6.68992 5.15274 7.24544 5.15274 7.91211V15.4747C5.15274 16.1968 5.35135 16.7594 5.74867 17.1621C6.15829 17.5649 6.66116 17.7663 7.25709 17.7663H15.954V22.9329H7.21981C6.54941 22.9329 5.82314 22.801 5.04099 22.5371C4.27124 22.2732 3.55117 21.8496 2.88067 21.2662C2.22267 20.669 1.67022 19.8982 1.22332 18.9538C0.776325 17.9954 0.552826 16.8357 0.552826 15.4747V7.8704C0.552826 7.12043 0.670774 6.31488 0.906667 5.45376C1.14256 4.57877 1.52128 3.77323 2.04265 3.03712C2.57651 2.28711 3.2656 1.66211 4.10981 1.16211C4.96643 0.662112 6.00316 0.412117 7.21981 0.412117H15.954C16.6244 0.412117 17.3444 0.544053 18.1142 0.807946C18.8963 1.07184 19.6164 1.50239 20.2744 2.09962C20.9449 2.68299 21.5035 3.45376 21.9504 4.41216C22.3974 5.35659 22.6209 6.50933 22.6209 7.8704Z" fill="white"/>
</svg>
